HIERARCHY
ROOT ui
{
	 OFFSET 0 0 0
	 CHANNELS 3 XPosition YPosition Z Position
	 EndSite
	 {
	 OFFSET 0 -1 0
	 }
}
ROOT li
{
	 OFFSET 0 0 0
	 CHANNELS 3 XPosition YPosition Z Position
	 EndSite
	 {
	 OFFSET 0 -1 0
	 }
}
ROOT ul
{
	 OFFSET 0 0 0
	 CHANNELS 3 XPosition YPosition Z Position
	 EndSite
	 {
	 OFFSET 0 -1 0
	 }
}
ROOT ll
{
	 OFFSET 0 0 0
	 CHANNELS 3 XPosition YPosition Z Position
	 EndSite
	 {
	 OFFSET 0 -1 0
	 }
}
ROOT tt
{
	 OFFSET 0 0 0
	 CHANNELS 3 XPosition YPosition Z Position
	 EndSite
	 {
	 OFFSET 0 -1 0
	 }
}
ROOT tb
{
	 OFFSET 0 0 0
	 CHANNELS 3 XPosition YPosition Z Position
	 EndSite
	 {
	 OFFSET 0 -1 0
	 }
}
ROOT td
{
	 OFFSET 0 0 0
	 CHANNELS 3 XPosition YPosition Z Position
	 EndSite
	 {
	 OFFSET 0 -1 0
	 }
}
ROOT v
{
	 OFFSET 0 0 0
	 CHANNELS 3 XPosition YPosition Z Position
	 EndSite
	 {
	 OFFSET 0 -1 0
	 }
}
ROOT bn
{
	 OFFSET 0 0 0
	 CHANNELS 3 XPosition YPosition Z Position
	 EndSite
	 {
	 OFFSET 0 -1 0
	 }
}
MOTION
Frames: 29
Frame Time: 0.002
0.0062386150360107424	-0.0011182539463043212	0		0.45529769897460937	-2.326462646484375	0		-1.12982568359375	-0.04363882064819336	0		-0.8441506958007813	-2.28573291015625	0		1.4609654541015624	-0.5850281982421875	0		3.109431884765625	0.12948133850097657	0		4.51325537109375	0.20770875549316406	0		5.63161083984375	0.11355308532714843	0		-0.11839228057861328	5.9295107421875	0		
0.012377443313598633	0.012547721862792969	0		0.4352630310058594	-2.317295654296875	0		-1.116788818359375	-0.03507184600830078	0		-0.8013153076171875	-2.283769287109375	0		1.467925537109375	-0.57943017578125	0		3.136975830078125	0.11261095428466797	0		4.5189453125	0.19822526550292968	0		5.6513935546875	0.10875279235839844	0		-0.10215192413330078	5.93798388671875	0		
0.0034596059322357176	0.020524990081787108	0		0.488979248046875	-2.32458056640625	0		-1.115888916015625	-0.036254833221435544	0		-0.80048828125	-2.284962646484375	0		1.4718865966796875	-0.5767572631835938	0		3.1353974609375	0.13734461975097656	0		4.50815283203125	0.21209506225585936	0		5.636857421875	0.13566279602050782	0		-0.10203845977783203	5.93778759765625	0		
0.011152705192565919	0.00619964599609375	0		0.4618671875	-2.325226806640625	0		-1.0531685791015626	-0.049640853881835936	0		-0.7755497436523437	-2.28360498046875	0		1.466663818359375	-0.5858692626953125	0		3.11214013671875	0.12554113006591797	0		4.52696875	0.2034139862060547	0		5.6574521484375	0.11591010284423828	0		-0.10090708923339843	5.93660205078125	0		
0.002348783016204834	0.015253275871276855	0		0.4509198913574219	-2.32014501953125	0		-1.126140625	-0.048281383514404294	0		-0.8126102294921875	-2.283969970703125	0		1.464583251953125	-0.5899924926757812	0		3.11313818359375	0.12431229400634766	0		4.5169716796875	0.20236537170410157	0		5.64465185546875	0.12488816070556641	0		-0.11396544647216797	5.92474267578125	0		
0.003375391960144043	0.014166733741760255	0		0.4617275695800781	-2.3294404296875	0		-1.0511502685546874	-0.05181578826904297	0		-0.7658486938476563	-2.295951904296875	0		1.4686541748046875	-0.5881754150390625	0		3.136023681640625	0.11571195220947265	0		4.5138837890625	0.19524884033203124	0		5.6505205078125	0.1155648422241211	0		-0.0985770263671875	5.93437744140625	0		
0.014219592094421387	0.002947701930999756	0		0.43782797241210936	-2.324973388671875	0		-1.1159329833984375	-0.043498489379882814	0		-0.8326591796875	-2.28660107421875	0		1.472766357421875	-0.5852888793945312	0		3.121494140625	0.13593865966796875	0		4.50807470703125	0.2012691192626953	0		5.6556875	0.12034133911132812	0		-0.09740426635742187	5.9333583984375	0		
0.0085317964553833	0.015134190559387207	0		0.49376577758789064	-2.330030517578125	0		-1.04091748046875	-0.04690727996826172	0		-0.7696021728515625	-2.28577587890625	0		1.4738067626953124	-0.5862661743164063	0		3.1221279296875	0.11393560791015625	0		4.52010693359375	0.19901707458496093	0		5.66093994140625	0.12920613098144532	0		-0.0962455062866211	5.93240966796875	0		
0.006512962818145752	0.011317950248718261	0		0.4647375183105469	-2.332314208984375	0		-1.1179222412109375	-0.0492081184387207	0		-0.76079736328125	-2.29679931640625	0		1.4717589111328124	-0.5911039428710938	0		3.133307861328125	0.11981116485595703	0		4.5163115234375	0.20617164611816408	0		5.65782275390625	0.12032695770263672	0		-0.10933425903320312	5.92081640625	0		
0.022241069793701173	-0.0037817521095275877	0		0.4896168518066406	-2.33860107421875	0		-1.0470057373046875	-0.05539734649658203	0		-0.7638919677734375	-2.301511962890625	0		1.469703857421875	-0.5948626098632812	0		3.1343203125	0.11897270965576172	0		4.51320556640625	0.19939846801757813	0		5.65883544921875	0.11945935821533203	0		-0.1092345962524414	5.92103515625	0		
-0.06847866821289063	0.01232735252380371	0		0.43766986083984377	-2.3332744140625	0		-1.120009765625	-0.05363692855834961	0		-0.7968624877929688	-2.29755517578125	0		1.4706605224609375	-0.5956040649414063	0		3.1192861328125	0.1185378189086914	0		4.5190078125	0.19053343200683595	0		5.6597978515625	0.11868335723876954	0		-0.10724436187744141	5.919287109375	0		
0.024095714569091795	-0.005170395851135254	0		0.46958523559570314	-2.332556640625	0		-1.1109783935546875	-0.04745200729370117	0		-0.7918814697265625	-2.293291259765625	0		1.4776895751953125	-0.5893919067382812	0		3.135736083984375	0.09554740142822266	0		4.51304345703125	0.1969907989501953	0		5.66485107421875	0.12591463470458986	0		-0.09112477111816407	5.928326171875	0		
-0.048999565124511715	-2.817150056362152E-4	0		0.4454963684082031	-2.327650146484375	0		-1.106109375	-0.04512314605712891	0		-0.7910753784179687	-2.29388232421875	0		1.4815780029296874	-0.5860474243164062	0		3.129228515625	0.12910342407226563	0		4.5241318359375	0.21018814086914062	0		5.67463916015625	0.12413314056396485	0		-0.09030531311035156	5.92773388671875	0		
0.01090510654449463	0.00800559425354004	0		0.492966796875	-2.341117431640625	0		-1.043625732421875	-0.05789344024658203	0		-0.8151300659179688	-2.28291455078125	0		1.47613623046875	-0.5944525146484375	0		3.127564453125	0.10962315368652344	0		4.5275869140625	0.19660887145996095	0		5.670556640625	0.13371133422851564	0		-0.10479604339599609	5.9175068359375	0		
-0.05072592544555664	-0.0042210850715637205	0		0.4656005859375	-2.34102490234375	0		-1.1169737548828125	-0.05588782501220703	0		-0.75991357421875	-2.30448583984375	0		1.4736964111328126	-0.5978551635742188	0		3.122322021484375	0.11628659057617187	0		4.5082265625	0.19756053161621093	0		5.67601171875	0.1251698989868164	0		-0.10420790863037109	5.9170361328125	0		
0.021835630416870117	-0.003078773021697998	0		0.4920898742675781	-2.34395703125	0		-1.1164573974609375	-0.056312705993652346	0		-0.7953320922851562	-2.30218798828125	0		1.48035595703125	-0.591380859375	0		3.1187177734375	0.10997665405273438	0		4.5067216796875	0.19622059631347658	0		5.6717275390625	0.13489707946777343	0		-0.10373905181884766	5.916619140625	0		
-0.0645088882446289	0.009293071746826172	0		0.4437234802246094	-2.334339599609375	0		-1.1119796142578124	-0.05377164077758789	0		-0.7908095092773437	-2.2986435546875	0		1.480780517578125	-0.591730712890625	0		3.113555908203125	0.1307606658935547	0		4.50713720703125	0.19590406799316407	0		5.6853017578125	0.14233177185058593	0		-0.08916883850097657	5.9269697265625	0		
0.03055999755859375	-0.004924683094024658	0		0.496973388671875	-2.340712158203125	0		-1.1075718994140624	-0.050188621520996096	0		-0.7904496459960938	-2.298975341796875	0		1.4841959228515624	-0.5880914916992187	0		3.12943896484375	0.10816807556152344	0		4.517740234375	0.20944366455078126	0		5.69460546875	0.14091081237792968	0		-0.08892382049560547	5.92664794921875	0		
-0.04921444702148438	-0.005606500148773194	0		0.469267822265625	-2.340425048828125	0		-1.0414945068359376	-0.05980369186401367	0		-0.7582876586914062	-2.305906494140625	0		1.4813759765625	-0.5922859497070313	0		3.139824462890625	0.11473951721191407	0		4.5138671875	0.20332061767578125	0		5.6948525390625	0.14072648620605469	0		-0.10299095153808593	5.91564794921875	0		
0.013219393730163575	0.0059089698791503905	0		0.49341567993164065	-2.345137939453125	0		-1.1152718505859376	-0.05759224700927734	0		-0.8038472900390625	-2.29525	0		1.4815743408203126	-0.592501220703125	0		3.12401220703125	0.11487580108642578	0		4.5099111328125	0.19624574279785156	0		5.69503662109375	0.14059349060058593	0		-0.10389956665039063	5.91642138671875	0		
0.02807942771911621	-0.008599233627319337	0		0.46765451049804685	-2.34282177734375	0		-1.0411630859375	-0.060303558349609376	0		-0.7599223022460937	-2.309354248046875	0		1.4817294921875	-0.592680908203125	0		3.11593408203125	0.10389389801025391	0		4.510048828125	0.19613279724121094	0		5.69517578125	0.14050668334960936	0		-0.1029080352783203	5.91518701171875	0		
0.03125341796875	-0.005843062877655029	0		0.48074420166015625	-2.34725244140625	0		-1.106874755859375	-0.051201259613037106	0		-0.8156605834960937	-2.304443115234375	0		1.4439656982421876	-0.5870736694335937	0		3.11898583984375	0.1007266387939453	0		4.4913017578125	0.20343544006347655	0		5.695287109375	0.1404615020751953	0		-0.0877417221069336	5.92469970703125	0		
0.016634300231933595	0.008294198989868164	0		0.47412612915039065	-2.33626171875	0		-1.032808349609375	-0.053860191345214845	0		-0.753452392578125	-2.302856689453125	0		1.4850528564453125	-0.5890089111328125	0		3.12361865234375	0.12756581115722657	0		4.50751220703125	0.20907675170898438	0		5.713697265625	0.1560931091308594	0		-0.08779975891113281	5.92453857421875	0		
0.02838454246520996	-0.0090760498046875	0		0.4681452331542969	-2.343263671875	0		-1.1148194580078126	-0.05839693450927735	0		-0.793328369140625	-2.3042197265625	0		1.485159912109375	-0.5891024780273437	0		3.084236572265625	0.10429769134521484	0		4.4986376953125	0.21124755859375	0		5.705466796875	0.14028199768066407	0		-0.10307392883300781	5.91469970703125	0		
0.028465478897094727	-0.009189915657043458	0		0.49425161743164064	-2.345879150390625	0		-1.0407713623046875	-0.06101141357421875	0		-0.7592841186523438	-2.31003125	0		1.4821795654296874	-0.5931123046875	0		3.111447509765625	0.11073929595947266	0		4.49457421875	0.2043487548828125	0		5.69974267578125	0.15045579528808595	0		-0.10317113494873047	5.91458203125	0		
0.013810284614562988	0.005010580062866211	0		0.4414988098144531	-2.339910400390625	0		-1.114670654296875	-0.058674434661865234	0		-0.7950809936523437	-2.306437744140625	0		1.4443690185546876	-0.5874095458984375	0		3.116369140625	0.1036445083618164	0		4.49947314453125	0.19629737854003906	0		5.71460205078125	0.14024459838867187	0		-0.10329132080078125	5.914484375	0		
0.03162525749206543	-0.006416361808776855	0		0.47738525390625	-2.35167919921875	0		-1.1105743408203126	-0.0558636589050293	0		-0.7810530395507812	-2.310812744140625	0		1.447502197265625	-0.5834973754882813	0		3.116816650390625	0.12466612243652343	0		4.50364013671875	0.20328695678710937	0		5.72294775390625	0.1561922607421875	0		-0.08923001098632813	5.92512841796875	0		
-0.060070693969726564	0.010343254089355469	0		0.44575326538085935	-2.336088623046875	0		-1.1105823974609375	-0.055952308654785156	0		-0.7887896118164063	-2.300735107421875	0		1.4475111083984376	-0.5835035400390625	0		3.078533935546875	0.11146593475341797	0		4.49878271484375	0.21147640991210936	0		5.71715087890625	0.167440185546875	0		-0.08943096923828125	5.92507275390625	0		
0.013762325286865234	0.004853776931762695	0		0.4945675964355469	-2.346068603515625	0		-1.0407464599609375	-0.061396568298339844	0		-0.79286767578125	-2.3047119140625	0		1.4443780517578124	-0.5874287719726563	0		3.10658935546875	0.11798023986816407	0		4.4825673828125	0.20490509033203125	0		5.7270703125	0.1673944854736328	0		-0.10390754699707032	5.91431640625	0		
